<mxfile host="app.diagrams.net" agent="Mozilla/5.0 (Windows NT 10.0; Win64; x64) AppleWebKit/537.36 (KHTML, like Gecko) Chrome/133.0.0.0 Safari/537.36" version="26.0.16">
  <diagram name="Page-1" id="wIUgvfWQYdXilDUVh0Lt">
    <mxGraphModel dx="1144" dy="2801" grid="0" gridSize="10" guides="1" tooltips="1" connect="1" arrows="1" fold="1" page="1" pageScale="1" pageWidth="850" pageHeight="1100" math="0" shadow="0">
      <root>
        <mxCell id="0" />
        <mxCell id="1" parent="0" />
        <mxCell id="dKZWyCn_Kkf8aolQx0JO-1" value="&lt;div&gt;&lt;br&gt;&lt;/div&gt;&lt;div&gt;INIT:&lt;/div&gt;&lt;div&gt;&lt;br&gt;&lt;/div&gt;&lt;div&gt;Pin Assignments&lt;/div&gt;&lt;div&gt;----------------------&lt;/div&gt;P1.4-1.7 Keypad Outputs&lt;div&gt;P2.0-2.3 Keypad Inputs&lt;/div&gt;&lt;div&gt;P6.0-6.2 RGB LED&lt;/div&gt;&lt;div&gt;P3.0-3.7 LED BAR&lt;/div&gt;&lt;div&gt;&lt;br&gt;&lt;/div&gt;&lt;div&gt;Timers&lt;/div&gt;&lt;div&gt;---------&lt;/div&gt;&lt;div&gt;TB3&amp;nbsp; &amp;nbsp; &amp;nbsp; &amp;nbsp; &amp;nbsp; &amp;nbsp;RGB LED&lt;/div&gt;&lt;div&gt;TB0&amp;nbsp; &amp;nbsp; &amp;nbsp; &amp;nbsp; &amp;nbsp; &amp;nbsp;Pattern Select&lt;/div&gt;&lt;div&gt;&lt;br&gt;&lt;/div&gt;&lt;div&gt;&lt;br&gt;&lt;/div&gt;" style="shape=document;whiteSpace=wrap;html=1;boundedLbl=1;size=0.13374479317370755;align=left;" vertex="1" parent="1">
          <mxGeometry x="19" y="-2182" width="154" height="233" as="geometry" />
        </mxCell>
        <mxCell id="dKZWyCn_Kkf8aolQx0JO-2" value="main" style="ellipse;whiteSpace=wrap;html=1;" vertex="1" parent="1">
          <mxGeometry x="220.5" y="-2175" width="120" height="50" as="geometry" />
        </mxCell>
        <mxCell id="dKZWyCn_Kkf8aolQx0JO-4" value="check_keypad" style="shape=parallelogram;perimeter=parallelogramPerimeter;whiteSpace=wrap;html=1;fixedSize=1;" vertex="1" parent="1">
          <mxGeometry x="215" y="-2100" width="131" height="35" as="geometry" />
        </mxCell>
        <mxCell id="dKZWyCn_Kkf8aolQx0JO-10" value="" style="edgeStyle=orthogonalEdgeStyle;rounded=0;orthogonalLoop=1;jettySize=auto;html=1;" edge="1" parent="1" source="dKZWyCn_Kkf8aolQx0JO-5" target="dKZWyCn_Kkf8aolQx0JO-6">
          <mxGeometry relative="1" as="geometry" />
        </mxCell>
        <mxCell id="dKZWyCn_Kkf8aolQx0JO-5" value="update_leds" style="shape=parallelogram;perimeter=parallelogramPerimeter;whiteSpace=wrap;html=1;fixedSize=1;" vertex="1" parent="1">
          <mxGeometry x="215" y="-2040" width="131" height="35" as="geometry" />
        </mxCell>
        <mxCell id="dKZWyCn_Kkf8aolQx0JO-6" value="return" style="ellipse;whiteSpace=wrap;html=1;" vertex="1" parent="1">
          <mxGeometry x="220.5" y="-1980" width="120" height="50" as="geometry" />
        </mxCell>
        <mxCell id="dKZWyCn_Kkf8aolQx0JO-7" value="" style="endArrow=classic;html=1;rounded=0;entryX=0;entryY=0.5;entryDx=0;entryDy=0;exitX=0.994;exitY=0.138;exitDx=0;exitDy=0;exitPerimeter=0;" edge="1" parent="1" source="dKZWyCn_Kkf8aolQx0JO-1" target="dKZWyCn_Kkf8aolQx0JO-2">
          <mxGeometry width="50" height="50" relative="1" as="geometry">
            <mxPoint x="239" y="-1977" as="sourcePoint" />
            <mxPoint x="289" y="-2027" as="targetPoint" />
          </mxGeometry>
        </mxCell>
        <mxCell id="dKZWyCn_Kkf8aolQx0JO-12" value="" style="edgeStyle=orthogonalEdgeStyle;rounded=0;orthogonalLoop=1;jettySize=auto;html=1;" edge="1" parent="1">
          <mxGeometry relative="1" as="geometry">
            <mxPoint x="280.35" y="-2065" as="sourcePoint" />
            <mxPoint x="280.35" y="-2040" as="targetPoint" />
          </mxGeometry>
        </mxCell>
        <mxCell id="dKZWyCn_Kkf8aolQx0JO-13" value="" style="edgeStyle=orthogonalEdgeStyle;rounded=0;orthogonalLoop=1;jettySize=auto;html=1;" edge="1" parent="1">
          <mxGeometry relative="1" as="geometry">
            <mxPoint x="280.35" y="-2125" as="sourcePoint" />
            <mxPoint x="280.35" y="-2100" as="targetPoint" />
          </mxGeometry>
        </mxCell>
        <mxCell id="dKZWyCn_Kkf8aolQx0JO-14" value="check_keypad" style="ellipse;whiteSpace=wrap;html=1;" vertex="1" parent="1">
          <mxGeometry x="399.5" y="-2175" width="120" height="50" as="geometry" />
        </mxCell>
        <mxCell id="dKZWyCn_Kkf8aolQx0JO-15" value="get_key" style="shape=parallelogram;perimeter=parallelogramPerimeter;whiteSpace=wrap;html=1;fixedSize=1;" vertex="1" parent="1">
          <mxGeometry x="394" y="-2100" width="131" height="35" as="geometry" />
        </mxCell>
        <mxCell id="dKZWyCn_Kkf8aolQx0JO-16" value="" style="edgeStyle=orthogonalEdgeStyle;rounded=0;orthogonalLoop=1;jettySize=auto;html=1;" edge="1" parent="1" source="dKZWyCn_Kkf8aolQx0JO-17" target="dKZWyCn_Kkf8aolQx0JO-18">
          <mxGeometry relative="1" as="geometry" />
        </mxCell>
        <mxCell id="dKZWyCn_Kkf8aolQx0JO-17" value="get_column" style="shape=parallelogram;perimeter=parallelogramPerimeter;whiteSpace=wrap;html=1;fixedSize=1;" vertex="1" parent="1">
          <mxGeometry x="394" y="-2040" width="131" height="35" as="geometry" />
        </mxCell>
        <mxCell id="dKZWyCn_Kkf8aolQx0JO-18" value="return" style="ellipse;whiteSpace=wrap;html=1;" vertex="1" parent="1">
          <mxGeometry x="399.5" y="-1980" width="120" height="50" as="geometry" />
        </mxCell>
        <mxCell id="dKZWyCn_Kkf8aolQx0JO-19" value="" style="edgeStyle=orthogonalEdgeStyle;rounded=0;orthogonalLoop=1;jettySize=auto;html=1;" edge="1" parent="1">
          <mxGeometry relative="1" as="geometry">
            <mxPoint x="459.35" y="-2065" as="sourcePoint" />
            <mxPoint x="459.35" y="-2040" as="targetPoint" />
          </mxGeometry>
        </mxCell>
        <mxCell id="dKZWyCn_Kkf8aolQx0JO-20" value="" style="edgeStyle=orthogonalEdgeStyle;rounded=0;orthogonalLoop=1;jettySize=auto;html=1;" edge="1" parent="1">
          <mxGeometry relative="1" as="geometry">
            <mxPoint x="459.35" y="-2125" as="sourcePoint" />
            <mxPoint x="459.35" y="-2100" as="targetPoint" />
          </mxGeometry>
        </mxCell>
        <mxCell id="dKZWyCn_Kkf8aolQx0JO-21" value="update_leds" style="ellipse;whiteSpace=wrap;html=1;" vertex="1" parent="1">
          <mxGeometry x="643.5" y="-2175" width="120" height="50" as="geometry" />
        </mxCell>
        <mxCell id="dKZWyCn_Kkf8aolQx0JO-22" value="update_rgb_led" style="shape=parallelogram;perimeter=parallelogramPerimeter;whiteSpace=wrap;html=1;fixedSize=1;" vertex="1" parent="1">
          <mxGeometry x="560" y="-2100" width="131" height="35" as="geometry" />
        </mxCell>
        <mxCell id="dKZWyCn_Kkf8aolQx0JO-24" value="update_led_bar" style="shape=parallelogram;perimeter=parallelogramPerimeter;whiteSpace=wrap;html=1;fixedSize=1;" vertex="1" parent="1">
          <mxGeometry x="709" y="-2100" width="131" height="35" as="geometry" />
        </mxCell>
        <mxCell id="dKZWyCn_Kkf8aolQx0JO-27" value="" style="edgeStyle=orthogonalEdgeStyle;rounded=0;orthogonalLoop=1;jettySize=auto;html=1;entryX=0.5;entryY=0;entryDx=0;entryDy=0;" edge="1" parent="1" target="dKZWyCn_Kkf8aolQx0JO-22">
          <mxGeometry relative="1" as="geometry">
            <mxPoint x="703.35" y="-2125" as="sourcePoint" />
            <mxPoint x="703.35" y="-2100" as="targetPoint" />
          </mxGeometry>
        </mxCell>
        <mxCell id="dKZWyCn_Kkf8aolQx0JO-28" value="" style="edgeStyle=orthogonalEdgeStyle;rounded=0;orthogonalLoop=1;jettySize=auto;html=1;entryX=0.5;entryY=0;entryDx=0;entryDy=0;exitX=0.5;exitY=1;exitDx=0;exitDy=0;" edge="1" parent="1" source="dKZWyCn_Kkf8aolQx0JO-21" target="dKZWyCn_Kkf8aolQx0JO-24">
          <mxGeometry relative="1" as="geometry">
            <mxPoint x="713.35" y="-2115" as="sourcePoint" />
            <mxPoint x="635" y="-2090" as="targetPoint" />
            <Array as="points">
              <mxPoint x="775" y="-2125" />
            </Array>
          </mxGeometry>
        </mxCell>
        <mxCell id="dKZWyCn_Kkf8aolQx0JO-29" value="set_rgb_led_pwm" style="shape=parallelogram;perimeter=parallelogramPerimeter;whiteSpace=wrap;html=1;fixedSize=1;" vertex="1" parent="1">
          <mxGeometry x="560" y="-2040" width="131" height="35" as="geometry" />
        </mxCell>
        <mxCell id="dKZWyCn_Kkf8aolQx0JO-30" value="" style="edgeStyle=orthogonalEdgeStyle;rounded=0;orthogonalLoop=1;jettySize=auto;html=1;" edge="1" parent="1">
          <mxGeometry relative="1" as="geometry">
            <mxPoint x="625.1600000000001" y="-2065" as="sourcePoint" />
            <mxPoint x="625.1600000000001" y="-2040" as="targetPoint" />
          </mxGeometry>
        </mxCell>
        <mxCell id="dKZWyCn_Kkf8aolQx0JO-31" value="" style="edgeStyle=orthogonalEdgeStyle;rounded=0;orthogonalLoop=1;jettySize=auto;html=1;" edge="1" parent="1" target="dKZWyCn_Kkf8aolQx0JO-32">
          <mxGeometry relative="1" as="geometry">
            <mxPoint x="774" y="-2065" as="sourcePoint" />
          </mxGeometry>
        </mxCell>
        <mxCell id="dKZWyCn_Kkf8aolQx0JO-32" value="return" style="ellipse;whiteSpace=wrap;html=1;" vertex="1" parent="1">
          <mxGeometry x="714.5" y="-2040" width="120" height="50" as="geometry" />
        </mxCell>
        <mxCell id="dKZWyCn_Kkf8aolQx0JO-33" value="" style="edgeStyle=orthogonalEdgeStyle;rounded=0;orthogonalLoop=1;jettySize=auto;html=1;" edge="1" parent="1" target="dKZWyCn_Kkf8aolQx0JO-34">
          <mxGeometry relative="1" as="geometry">
            <mxPoint x="625" y="-2005" as="sourcePoint" />
          </mxGeometry>
        </mxCell>
        <mxCell id="dKZWyCn_Kkf8aolQx0JO-34" value="return" style="ellipse;whiteSpace=wrap;html=1;" vertex="1" parent="1">
          <mxGeometry x="565.5" y="-1980" width="120" height="50" as="geometry" />
        </mxCell>
      </root>
    </mxGraphModel>
  </diagram>
</mxfile>
